<svg width="162" height="39" viewBox="0 0 162 39" fill="none" xmlns="http://www.w3.org/2000/svg">
<path d="M0.384766 2.19031H3.04442V36.2965H24.0609V38.6954H0.384766V2.19031Z" fill="white"/>
<path d="M43.0087 11.473H45.6162V38.6954H43.0087V11.473ZM44.3125 4.84995C43.7214 4.84995 43.2173 4.65874 42.8001 4.2763C42.3829 3.8591 42.1743 3.35498 42.1743 2.76395C42.1743 2.17291 42.3829 1.6688 42.8001 1.25159C43.2173 0.834393 43.7214 0.625793 44.3125 0.625793C44.9035 0.625793 45.4076 0.834393 45.8248 1.25159C46.242 1.63403 46.4506 2.12076 46.4506 2.7118C46.4506 3.30283 46.242 3.80695 45.8248 4.22415C45.4076 4.64135 44.9035 4.84995 44.3125 4.84995Z" fill="white"/>
<path d="M79.879 38.904C77.2367 38.904 74.8726 38.313 72.7865 37.1309C70.7005 35.9488 69.0665 34.3148 67.8844 32.2288C66.7024 30.108 66.1113 27.7265 66.1113 25.0842C66.1113 22.4072 66.7024 20.0257 67.8844 17.9397C69.0665 15.8189 70.7005 14.1848 72.7865 13.0375C74.8726 11.8555 77.2367 11.2644 79.879 11.2644C82.0693 11.2644 84.051 11.699 85.8241 12.5682C87.632 13.4026 89.0922 14.6368 90.2047 16.2708L88.2751 17.6789C87.3017 16.323 86.0848 15.3148 84.6246 14.6542C83.1992 13.9589 81.6173 13.6112 79.879 13.6112C77.7582 13.6112 75.846 14.0979 74.1424 15.0714C72.4736 16.0101 71.1525 17.3486 70.179 19.087C69.2403 20.8253 68.771 22.8244 68.771 25.0842C68.771 27.3441 69.2403 29.3431 70.179 31.0815C71.1525 32.8198 72.4736 34.1757 74.1424 35.1492C75.846 36.0879 77.7582 36.5573 79.879 36.5573C81.6173 36.5573 83.1992 36.227 84.6246 35.5664C86.0848 34.8711 87.3017 33.8454 88.2751 32.4895L90.2047 33.8976C89.0922 35.5316 87.632 36.7832 85.8241 37.6524C84.051 38.4868 82.0693 38.904 79.879 38.904Z" fill="white"/>
<path d="M123.668 11.2644C127.075 11.2644 129.769 12.2553 131.751 14.237C133.733 16.2187 134.723 19.0696 134.723 22.7896V38.6954H132.116V22.9982C132.116 19.9387 131.334 17.6094 129.769 16.0101C128.239 14.4108 126.084 13.6112 123.303 13.6112C120.104 13.6112 117.583 14.5673 115.741 16.4794C113.898 18.3916 112.977 20.9644 112.977 24.1977V38.6954H110.369V0H112.977V17.1574C113.916 15.28 115.306 13.8372 117.149 12.8289C118.992 11.7859 121.164 11.2644 123.668 11.2644Z" fill="white"/>
<path d="M158.174 11.473H160.781V38.6954H158.174V11.473ZM159.477 4.84995C158.886 4.84995 158.382 4.65874 157.965 4.2763C157.548 3.8591 157.339 3.35498 157.339 2.76395C157.339 2.17291 157.548 1.6688 157.965 1.25159C158.382 0.834393 158.886 0.625793 159.477 0.625793C160.068 0.625793 160.572 0.834393 160.99 1.25159C161.407 1.63403 161.615 2.12076 161.615 2.7118C161.615 3.30283 161.407 3.80695 160.99 4.22415C160.572 4.64135 160.068 4.84995 159.477 4.84995Z" fill="white"/>
</svg> 